<?xml version="1.0" encoding="UTF-8" standalone="no"?>
<svg
   xmlns:dc="http://purl.org/dc/elements/1.1/"
   xmlns:cc="http://creativecommons.org/ns#"
   xmlns:rdf="http://www.w3.org/1999/02/22-rdf-syntax-ns#"
   xmlns:svg="http://www.w3.org/2000/svg"
   xmlns="http://www.w3.org/2000/svg"
   xmlns:sodipodi="http://sodipodi.sourceforge.net/DTD/sodipodi-0.dtd"
   width="573.5625"
   height="779.28125"
   version="1.1">
  <defs>
    <style type="text/css" id="basics"><![CDATA[
      path { stroke-width:1px }
      .park,.city,.water,.railroad,.unreachable { stroke:none }
    ]]></style>
    <style type="text/css" id="scheme"><![CDATA[
      .background {
        fill: #9a9995;
      }
      .motorway {
        fill: #aa7300;
        stroke: #0d1b00;
      }
      .park {
        fill: #5b6f4d;
      }
      .water {
        fill: #617282;
      }
      .railroad {
        fill: #a4a4a4;
      }
      .railroadB {
        fill: #202020;
      }
      .city {
        fill: #858583;
      }
      .unreachable {
        fill: #ac2c2c;
      }
      .destination {
        fill: #a3a3a3;
        stroke: #5f5f5f;
      }
      .connecting {
        fill: #a2a25a;
        stroke: #5f5f5f;
      }
      .major {
        fill: #a29145;
        stroke: #0d1b00;
      }
      .arrows {
        fill: #003dbd;
        stroke: #003dbd;
      }
    ]]></style>
  </defs>
  <sodipodi:namedview
     id="base"
     pagecolor="#ffffff"
     bordercolor="#666666"
     borderopacity="1.0"
     showgrid="false" />
  <metadata id="metadata7">
    <rdf:RDF>
      <cc:Work rdf:about="">
        <dc:format>image/svg+xml</dc:format>
        <dc:type rdf:resource="http://purl.org/dc/dcmitype/StillImage" />
        <dc:title></dc:title>
      </cc:Work>
    </rdf:RDF>
  </metadata>
  <g transform="translate(-97.46875,-150.4375)">
    <path
       class="background"
       d="m 99.964979,152.94354 568.557371,0 0,774.2716 -568.557371,0 z"
       clip-path="none" />
    <path
       class="motorway"
       d="m 126.38652,955.79366 24.28571,-0.7143 c 0,0 -3.25144,-40.45764 -2.85714,-60.71429 1.78128,-91.51101 23.57143,-273.57143 23.57143,-273.57143 l 58.57143,-385 33.57143,-130 -25.71429,0 c 0,0 -17.71031,58.19319 -24.28571,87.85714 -5.90419,26.63591 -13.57143,80.71429 -13.57143,80.71429 l -35.71429,227.14285 c 0,0 -20.72166,135.50032 -28.57143,203.57143 -5.14876,44.64865 -12.14285,134.28572 -12.14285,134.28572 l -5,116.42859 z"
       sodipodi:nodetypes="ccsccccsccsccc" />
    <path
       class="park"
       d="m 95.324019,153.81985 -3.75,23.59375 -25.53125,-3.75 -6.625,35 -11.0625,1.40625 -1.4375,13.75 61.625001,10.375 12.65625,-75.375 -25.875001,-5 z m 96.781251,318.40625 -31.4375,28.5625 0,77.15625 7.15625,30.71875 7.84375,-1.4375 16.4375,-135 z m 173.5625,36.4375 -4.28125,23.5625 -27.3125,-4.8125 c 0,0 -2.04159,15.6721 -4.28125,18.5625 -1.44368,1.86315 -3.29948,3.62226 -5.5625,4.28125 -2.10759,0.61373 -6.40625,-0.1875 -6.40625,-0.1875 l -13.59375,85.71875 92.15625,13.5625 5,-28.5625 43.5625,7.15625 -5,28.5625 20.71875,3.5625 3.5625,-16.40625 16.4375,-117.15625 -115,-17.84375 z m -83.6875,128.75 -4.3125,26.03125 84.875,14.375 5.28125,-26.5 -85.84375,-13.90625 z m 101.71875,126.0625 -2.65625,15.34375 -18.0625,-2.125 -2.84375,14.625 28.75,4.84375 39.8125,-23.9375 -45,-8.75 z m 281.375,97.6875 -38.375,48.5 -0.53125,16.65625 40.40625,1 -1.5,-66.15625 z" />
    <path
       class="water"
       d="m 606.38652,953.65076 c 0,0 -10.29923,-36.69751 -6.42857,-50.71426 4.11316,-14.89488 13.85511,-33.16046 26.42857,-42.14286 23.2068,-16.57879 41.80025,-37.04452 52.85714,-61.42857 4.63808,-10.22849 3.2956,-19.06974 0.71429,-30 -5.19051,-21.9787 -4.10593,-22.39732 -5.71429,-32.14286 -1.32045,-8.001 1.29196,-16.64645 -1.42857,-24.28571 -1.77357,-4.98019 -4.54578,-10.51601 -9.28571,-12.85715 -7.68809,-3.79729 -18.26263,-3.52822 -25.71429,0.71429 -8.23751,4.68992 -14.49974,7.6464 -29.28571,7.85714 -8.18148,0.11661 -17.17051,0.94824 -25,-1.42857 -10.08898,-3.06273 -18.03304,-13.23967 -28.57143,-13.57143 -10.25238,-0.32276 -21.76894,3.75123 -28.57143,11.42857 -3.31696,3.74354 -42.34851,66.77382 -45.71428,75.00001 -13.75906,33.62819 -12.9083,85.97711 -17.85714,102.14285 -6.61437,21.60628 -40.00001,73.57145 -40.00001,73.57145 l -30,-1.4286 c 0,0 1.61431,-7.6556 12.54704,-20.84886 11.20471,-13.52149 31.80146,-32.71568 37.45296,-43.43685 6.9744,-13.23079 9.78834,-43.08715 12.14286,-57.85713 4.99919,-31.36008 -4.37127,-46.31665 5.71429,-76.42858 5.03413,-15.03013 21.49716,-33.30208 26.42857,-39.28571 3.79776,-4.6081 13.17185,-14.15503 17.85714,-17.85715 8.40666,-6.64259 8.26808,-13.99714 17.14286,-20 8.37186,-5.66269 19.1792,-7.96966 29.28571,-7.85714 16.12281,0.17949 30.41419,11.69607 46.42857,13.57143 9.23481,1.08144 18.6136,-0.42456 27.85715,-1.42857 10.07866,-1.09471 19.99193,-6.61753 30,-5 9.56781,1.54637 19.37181,6.2429 25.71428,13.57143 7.44148,8.59841 9.76281,20.89414 11.42857,32.14285 0.73327,4.95167 -1.33128,10.03251 -0.71428,15 1.71752,13.82791 11.37404,26.08706 12.14285,40 0.78843,14.26792 -2.93395,28.72804 -7.85714,42.14286 -4.62945,12.61443 -12.48614,23.8601 -20,35 -8.81644,13.07108 -20.83533,23.83219 -29.28571,37.14286 -5.42163,8.53991 -12.06729,17.13976 -13.57143,27.14285 -0.86141,5.72871 2.85714,17.14286 2.85714,17.14286 l 7.14286,16.42855 z"
       sodipodi:nodetypes="cssssssssssssssccsssssssssssssssssssccc" />
    <path
       class="railroad"
       d="m 660.32402,105.44485 -41.78125,256.0625 c 0,0 -5.72631,18.87815 -10.375,27.5 -3.07385,5.70102 -11.4375,15.71875 -11.4375,15.71875 l -60.6875,68.9375 -16.09375,28.1875 c 0,0 -8.38576,16.77873 -11.0625,25.71875 -3.32906,11.1187 -6.14045,24.15691 -7.15625,35.71875 -0.82311,9.36867 -0.98062,17.38723 -0.53125,26.78125 0.41714,8.72037 4.125,26.09375 4.125,26.09375 l 38.21875,141.78125 c 0,0 4.54816,30.85497 5.6875,46.40625 1.46178,19.95219 2.56673,40.02623 1.4375,60 -0.73935,13.0776 -2.35375,26.18485 -5.34375,38.9375 -4.09912,17.48314 -17.15625,51.06246 -17.15625,51.06246 l 15.375,0 c 0,0 8.24385,-24.77499 11.0625,-37.49996 2.0827,-9.40245 3.24312,-18.98826 4.28125,-28.5625 1.53058,-14.11591 2.55905,-28.30421 2.84375,-42.5 0.26506,-13.21645 -0.17452,-26.43575 -1.0625,-39.625 -0.82041,-12.18568 -2.04086,-24.3724 -3.9375,-36.4375 -1.5482,-9.84853 -6.0625,-29.28125 -6.0625,-29.28125 0,0 -30.9169,-95.94921 -40,-145.375 -1.36173,-7.40985 -2.4208,-14.97187 -2.125,-22.5 0.46029,-11.71458 3.08584,-23.28557 6.0625,-34.625 2.62901,-10.01509 10.34375,-29.28125 10.34375,-29.28125 l 20.71875,-33.21875 41.0625,-44.65625 c 0,0 19.95475,-22.85001 27.15625,-36.0625 6.92179,-12.69931 15,-40.71875 15,-40.71875 l 42.5,-247.84375 z m -497.875,624.28125 c -10.64791,0.0284 -21.44839,0.6476 -31.78125,3.21875 -20.20349,5.02728 -38.684901,15.41431 -57.843751,23.5625 -43.50688,18.50332 -85.7276,40.02157 -129.65625,57.5 -11.61104,4.61983 -23.171438,9.67268 -35.343748,12.5 -8.989921,2.08813 -18.273421,2.99711 -27.500001,3.21875 -10.50076,0.25225 -20.98663,-1.10319 -31.4375,-2.15625 -33.21759,-3.34709 -66.0452,-10.06027 -99.28125,-13.21875 -12.35002,-1.17364 -24.75122,-2.249 -37.15625,-2.125 -9.19354,0.0919 -18.38323,0.93586 -27.5,2.125 -9.11677,1.18914 -27.125,5 -27.125,5 l 0.34375,5.375 c 0,0 30.12386,-5.79296 45.375,-7.15625 10.90705,-0.97498 21.89716,-1.0127 32.84375,-0.71875 7.99912,0.2148 15.98105,0.95981 23.9375,1.8125 35.24952,3.77766 69.97667,12.18169 105.34375,14.625 8.19921,0.56644 16.47034,0.73396 24.65625,0 7.34862,-0.65888 14.647791,-2.05334 21.781251,-3.9375 9.0301,-2.38512 17.678118,-6.04014 26.437498,-9.28125 18.45042,-6.82695 36.53609,-14.61586 55.0000001,-21.40625 11.94059,-4.39134 24.3171299,-7.61045 36.0624999,-12.5 17.49584,-7.28345 34.06263,-16.62398 51.0625,-25 12.51551,-6.16653 24.463691,-13.62196 37.500001,-18.59375 7.96437,-3.03745 16.27981,-5.20245 24.65625,-6.78125 7.87357,-1.48402 15.89757,-2.73767 23.90625,-2.5 9.52925,0.28279 19.00516,2.20751 28.21875,4.65625 7.24995,1.92686 14.42236,4.41342 21.09375,7.84375 10.9763,5.64385 21.30747,12.69709 30.6875,20.71875 33.99515,29.07214 59.56588,66.83309 91.4375,98.21875 7.08906,6.98097 22.15625,20 22.15625,20 l 26.875,19.96875 c 0,0 -14.06717,-3.45638 -21.15625,-2.84375 -7.09614,0.61324 -14.09974,3.06817 -20.375,6.4375 -4.84884,2.60345 -9.37138,6.10513 -12.84375,10.375 -3.62715,4.4602 -6.02059,9.90218 -7.875,15.34375 -2.10827,6.1865 -3.5625,19.28121 -3.5625,19.28121 l 5.71875,0 c 0,0 -0.63161,-11.43841 1.0625,-16.78121 1.85863,-5.86166 5.45459,-11.2288 9.65625,-15.71875 3.78781,-4.0477 8.65323,-7.05005 13.5625,-9.625 4.9376,-2.58981 10.19623,-4.95141 15.71875,-5.71875 6.38283,-0.88688 19.28125,1.40625 19.28125,1.40625 l 10.4375,5 56.71875,42.15626 6.0625,0 -100.71875,-76.06251 c 0,0 -29.3067,-28.55019 -43.5625,-43.21875 -23.53919,-24.22075 -43.4405,-52.18908 -69.28125,-73.9375 -8.28694,-6.97456 -17.52632,-12.88568 -27.15625,-17.84375 -8.51165,-4.38231 -17.4655,-8.16825 -26.78125,-10.375 -9.66334,-2.28909 -19.72552,-2.87025 -29.65625,-2.84375 z"
       sodipodi:nodetypes="ccscccsssccsssccssssscssscccscccssssssssssccsssssssssssssssssccssssccsssscccccsssss" />
    <path
       class="railroadB"
       d="M 562.84375 -45 L 560.34375 -29.6875 L 571.40625 -29.6875 L 573.90625 -44.28125 L 562.84375 -45 z M 558.09375 -15.9375 L 554.4375 6.59375 L 565.1875 6.59375 L 569.03125 -15.9375 L 558.09375 -15.9375 z M 552.1875 20.34375 L 548.5 42.875 L 558.96875 42.875 L 562.8125 20.34375 L 552.1875 20.34375 z M 546.25 56.65625 L 543.1875 75.40625 L 553.375 75.40625 L 556.59375 56.65625 L 546.25 56.65625 z M 540.9375 89.1875 L 537.875 107.9375 L 547.8125 107.9375 L 551.03125 89.1875 L 540.9375 89.1875 z M 535.625 121.71875 L 532.1875 142.96875 L 541.78125 142.96875 L 545.4375 121.71875 L 535.625 121.71875 z M 529.9375 156.75 L 526.875 175.53125 L 536.21875 175.53125 L 539.4375 156.75 L 529.9375 156.75 z M 524.625 189.28125 L 521.5625 208.0625 L 530.09375 208.0625 C 530.92674 205.33923 531.40625 203.5625 531.40625 203.5625 L 533.84375 189.28125 L 524.625 189.28125 z M 517.5625 221.8125 C 515.56023 227.56565 512.98421 234.30284 510.6875 238.5625 C 509.3194 241.09989 506.91632 244.48495 504.65625 247.46875 L 512.15625 251.15625 C 513.80225 248.71507 515.26817 246.36927 516.40625 244.28125 C 519.52203 238.56477 522.85162 229.78449 525.59375 221.8125 L 517.5625 221.8125 z M 495.625 258.375 L 476.03125 280.65625 L 485.15625 284.78125 L 489.25 280.34375 C 489.25 280.34375 496.55192 271.98524 503.90625 262.46875 L 495.625 258.375 z M 466.53125 291.4375 L 454.59375 305 L 463.40625 308.46875 L 475.34375 295.46875 L 466.53125 291.4375 z M 444.90625 316.03125 L 438.5625 323.21875 L 434.875 329.65625 L 443.25 332.9375 L 448.1875 325 L 453.40625 319.34375 L 444.90625 316.03125 z M 427.96875 341.78125 L 422.46875 351.40625 C 422.46875 351.40625 420.41838 355.51308 418.03125 360.71875 L 426.5 360.71875 C 426.9953 359.45595 427.46875 358.21875 427.46875 358.21875 L 435.8125 344.84375 L 427.96875 341.78125 z M 412.28125 374.46875 C 411.94904 375.40546 411.65268 376.30195 411.40625 377.125 C 409.4303 383.72445 407.65648 391.00817 406.3125 398.25 L 414.5 398.25 C 415.30907 394.64764 416.19063 391.05945 417.125 387.5 C 418.0687 383.90503 419.68151 379.12875 421.34375 374.46875 L 412.28125 374.46875 z M 404.34375 412.03125 C 404.31842 412.29953 404.27344 412.577 404.25 412.84375 C 403.50383 421.33674 403.32094 428.72678 403.625 437.03125 L 411.96875 437.03125 C 411.28651 432.08814 410.86733 427.09205 411.0625 422.125 C 411.19538 418.74319 411.54987 415.38701 412 412.03125 L 404.34375 412.03125 z M 405.09375 450.8125 C 406.30569 458.35802 407.84375 465.71875 407.84375 465.71875 L 410.25 474.59375 L 419.8125 474.59375 C 417.72658 466.14505 415.8837 458.08831 414.40625 450.8125 L 405.09375 450.8125 z M 413.9375 488.34375 L 418.65625 505.875 L 428.0625 505.875 C 426.44254 500.01172 424.83011 494.13575 423.3125 488.34375 L 413.9375 488.34375 z M 422.375 519.625 L 427.09375 537.15625 L 437 537.15625 C 435.33342 531.49788 433.61642 525.62284 431.90625 519.625 L 422.375 519.625 z M 430.8125 550.90625 L 436.875 573.4375 L 447.96875 573.4375 C 446.03078 567.2052 443.68401 559.5114 441.09375 550.90625 L 430.8125 550.90625 z M 64.96875 579.28125 C 57.59035 579.30093 50.162313 579.64755 42.84375 580.6875 L 43.84375 585.65625 C 44.346638 585.55707 44.840358 585.43863 45.34375 585.34375 C 53.21732 583.85973 61.24132 582.60608 69.25 582.84375 C 70.099196 582.86895 70.964299 582.91826 71.8125 582.96875 L 71.90625 579.40625 C 69.593255 579.33314 67.274211 579.2751 64.96875 579.28125 z M 85.65625 580.5 L 85.5625 584.75 C 89.570506 585.51694 93.539936 586.45582 97.46875 587.5 C 101.23415 588.50075 104.99201 589.67474 108.65625 591.03125 L 111.625 587.84375 C 106.11684 585.47785 100.43408 583.50108 94.625 582.125 C 91.66688 581.42427 88.673907 580.9122 85.65625 580.5 z M 29.375 583.53125 C 20.475083 586.05881 11.864603 589.55393 3.375 593.34375 L 5.0625 599.25 C 10.167717 596.62944 15.329602 594.1684 20.6875 592.125 C 23.894786 590.90181 27.166541 589.83392 30.46875 588.875 L 29.375 583.53125 z M 440.59375 587.21875 L 446.0625 607.5 C 446.0625 607.5 446.43605 609.91567 446.9375 613.46875 L 458.21875 613.46875 C 456.27546 603.29268 453.1875 590 453.1875 590 C 453.1875 590 452.70204 588.43952 452.3125 587.21875 L 440.59375 587.21875 z M 124.53125 594.15625 L 121.8125 597.09375 C 128.34917 600.66176 134.64617 604.72386 140.625 609.1875 L 143.375 606.21875 C 137.43004 601.72201 131.08485 597.70604 124.53125 594.15625 z M -9.28125 599.15625 C -14.386141 601.52539 -19.499998 603.86956 -24.65625 606.0625 C -68.16313 624.56582 -110.38385 646.08407 -154.3125 663.5625 C -165.92354 668.18233 -177.48394 673.23518 -189.65625 676.0625 C -198.64617 678.15063 -207.92967 679.05961 -217.15625 679.28125 C -227.65701 679.5335 -238.14288 678.17806 -248.59375 677.125 C -281.81134 673.77791 -314.63895 667.06473 -347.875 663.90625 C -360.22502 662.73261 -372.62622 661.65725 -385.03125 661.78125 C -394.22479 661.87315 -403.41448 662.71711 -412.53125 663.90625 C -421.64802 665.09539 -439.65625 668.90625 -439.65625 668.90625 L -439.3125 674.28125 C -439.3125 674.28125 -409.18864 668.48829 -393.9375 667.125 C -383.03045 666.15002 -372.04034 666.1123 -361.09375 666.40625 C -353.09463 666.62105 -345.1127 667.36606 -337.15625 668.21875 C -301.90673 671.99641 -267.17958 680.40044 -231.8125 682.84375 C -223.61329 683.41019 -215.34216 683.57771 -207.15625 682.84375 C -199.80763 682.18487 -192.50846 680.79041 -185.375 678.90625 C -176.3449 676.52113 -167.69688 672.86611 -158.9375 669.625 C -140.48708 662.79805 -122.40141 655.00914 -103.9375 648.21875 C -91.99691 643.82741 -79.62037 640.6083 -67.875 635.71875 C -50.37916 628.4353 -33.81237 619.09477 -16.8125 610.71875 C -13.629316 609.15036 -10.480772 607.48557 -7.34375 605.8125 L -9.28125 599.15625 z M 153.9375 615.03125 L 151.3125 617.84375 C 158.09182 623.76855 164.54091 630.04934 170.78125 636.53125 L 173.0625 634.09375 C 166.94305 627.47056 160.62522 621.05753 153.9375 615.03125 z M 448.8125 627.25 C 449.79841 634.8044 450.75316 643.04461 451.375 649.78125 L 462.75 649.78125 C 462.15849 642.25788 461.40217 634.73006 460.40625 627.25 L 448.8125 627.25 z M 182.28125 644.375 L 180.21875 646.625 C 185.41677 652.35008 190.50609 658.18833 195.5625 664.0625 L 197.5625 661.9375 C 192.47027 656.07858 187.40582 650.19622 182.28125 644.375 z M 452.40625 663.53125 C 453.00232 672.70194 453.4874 681.87696 453.625 691.0625 L 464.34375 691.0625 C 464.42383 681.88422 464.1432 672.69782 463.65625 663.53125 L 452.40625 663.53125 z M 206.6875 672.3125 L 204.5625 674.59375 C 209.64682 680.52953 214.78125 686.41549 219.96875 692.25 L 222.75 689.28125 C 221.01223 687.52367 219.31101 685.79099 217.84375 684.28125 C 214.04037 680.36775 210.34133 676.37963 206.6875 672.3125 z M 232.5 699 L 229.25 702.5 C 232.98842 706.504 236.78736 710.44058 240.6875 714.28125 C 241.93978 715.51444 243.50183 716.96377 245.125 718.46875 L 248.5 714.84375 C 243.2321 709.6726 238.75542 705.22514 232.5 699 z M 453.5625 704.8125 C 453.48746 707.84363 453.35865 710.87895 453.1875 713.90625 C 452.83978 720.05671 452.31814 726.22014 451.53125 732.34375 L 462 732.34375 C 462.90415 723.1882 463.57808 714.00408 463.96875 704.8125 L 453.5625 704.8125 z M 258.34375 724.5 L 255.34375 727.71875 C 259.4981 731.39253 262.84375 734.28125 262.84375 734.28125 L 280.3125 747.28125 L 283.3125 744.0625 L 261.40625 727.5 C 261.40625 727.5 258.81677 724.96144 258.34375 724.5 z M 449.28125 746.125 C 448.83957 748.37637 448.367 750.61204 447.84375 752.84375 C 446.33892 759.26198 443.64266 767.85717 440.8125 776.15625 L 454.625 776.15625 C 455.61685 772.60764 456.50885 769.1879 457.125 766.40625 C 458.60732 759.71422 459.60113 752.93251 460.4375 746.125 L 449.28125 746.125 z M 269.96875 751.34375 C 269.4763 751.35209 269.00557 751.36796 268.5625 751.40625 C 262.59352 751.92208 256.70962 753.74239 251.25 756.3125 L 254.75 760.3125 C 259.4456 757.89537 264.41082 755.7245 269.625 755 C 270.68598 754.85258 271.94938 754.80933 273.28125 754.8125 L 276.15625 751.75 C 273.96942 751.48505 271.80649 751.31264 269.96875 751.34375 z M 294.375 752.40625 L 290.09375 756.96875 L 299.34375 761.40625 L 307.5625 767.5 L 310.375 764.5 L 294.375 752.40625 z M 239.53125 763.875 C 238.02271 765.2202 236.60859 766.66341 235.34375 768.21875 C 231.7166 772.67895 229.32316 778.12093 227.46875 783.5625 C 227.34001 783.94029 227.21743 784.35649 227.09375 784.78125 L 231.21875 784.59375 C 233.18227 779.31065 236.49977 774.45148 240.34375 770.34375 C 241.1797 769.45045 242.07019 768.61062 243 767.8125 L 239.53125 763.875 z M 321.4375 772.8125 L 318.6875 775.78125 L 332.53125 786.0625 L 335.1875 783.21875 L 321.4375 772.8125 z M 435.9375 789.90625 C 432.99789 797.96766 430.6875 803.90625 430.6875 803.90625 L 446.0625 803.90625 C 446.0625 803.90625 448.14553 797.70355 450.5625 789.90625 L 435.9375 789.90625 z M 346.21875 791.5625 L 343.65625 794.34375 L 356.0625 803.5625 L 362.125 803.5625 L 346.21875 791.5625 z M 229.53125 798.4375 L 224.46875 798.65625 C 224.14787 800.99989 223.90625 802.84375 223.90625 802.84375 L 229.625 802.84375 C 229.625 802.84375 229.54397 800.97874 229.53125 798.4375 z "
       transform="translate(97.46875,150.4375)" />
    <path
       class="city"
       d="m 100.39422,615.70144 5.80838,-34.85026 48.73986,6.06091 -2.27284,-42.67894 -105.560941,-18.68782 -5.05076,76.01398 z"
       sodipodi:nodetypes="ccccccc" />
    <path
       class="destination"
       d="m 474.7717,523.54733 -20.20306,135.86551 7.57615,1.51523 4.54569,-17.67767 15.65736,-121.72338 z" />
    <path
       class="unreachable"
       d="M 384.875 371.09375 L 377.3125 373.125 L 375.5625 384.8125 L 383.125 384.8125 L 384.875 371.09375 z M 373.53125 398.5625 L 370.65625 417.96875 L 378.84375 417.96875 L 381.34375 398.5625 L 373.53125 398.5625 z M 368.59375 431.71875 L 365.71875 451.125 L 374.59375 451.125 L 377.09375 431.71875 L 368.59375 431.71875 z M 363.65625 464.875 L 361.46875 479.59375 L 370.90625 479.59375 L 372.8125 464.875 L 363.65625 464.875 z M 359.40625 493.34375 L 357.09375 508.96875 L 364.6875 510.5 L 369.09375 493.34375 L 359.40625 493.34375 z "
       transform="translate(97.46875,150.4375)" />
    <path
       class="destination"
       d="m 526.73027,105.7886 -24.21875,148.5 -39.1875,-6.09375 23.0625,-141.6875 -7.5,-0.34375 -22.15625,141 -22.5,-3.5 -0.6875,6.78125 190.71875,28.9375 -6.1875,40.9375 -394.4375,-63.71875 -6.0625,5.5625 6.5625,3.53125 -17.6875,121.21875 3.625,23.0625 2.375,-15.46875 47.21875,7.09375 -5.4375,37.75 7.5,-0.34375 4.5625,-36.4375 33.3125,5 c 0,0 4.37014,-0.24295 5.90625,-1.59375 1.50191,-1.32072 2.3125,-5.53125 2.3125,-5.53125 l 0.8125,-5.125 27.90625,4.78125 -7.3125,47.46875 7.15625,2.5 13.21875,-91.21875 62.125,9.8125 2.5,-6.09375 -63.625,-10.71875 6.84375,-47.125 c 0,0 0.10514,-2.22533 -2.625,-2.78125 -2.73014,-0.55592 -3.44944,1.71636 -3.4375,1.71875 l -13.90625,90.28125 -27.9375,-4.4375 16.96875,-108.59375 290.46875,46.65625 -5.28125,32.03125 c 0,0 -0.7175,3.3697 -3.53125,5.46875 -3.5869,2.67582 -7.1875,1.90625 -7.1875,1.90625 l -183.90625,-29.0625 0,5.5625 176.03125,28.84375 c 0,0 -2.31604,0.93525 -5.03125,3.09375 -1.89522,1.50664 -3.78125,3.59375 -3.78125,3.59375 l -24.53125,28.625 -143.1875,-23.5 -2.78125,7.0625 140.96875,22.25 -16.4375,19.1875 -127.3125,-19.21875 -2.03125,6.8125 124.0625,18.53125 -32.0625,37.375 -85.65625,-13.1875 28.5625,15.34375 6.4375,-4.625 35.6875,6.03125 -5.53125,39.90625 -70.90625,-10.96875 4.125,-35.6875 -6.25,-3.40625 -4.84375,38.03125 -95.34375,-14.75 8.21875,-42.03125 -7.5,-0.875 -6.53125,42 -49,-7.5625 c 0,0 -3.90196,-0.78786 -6.53125,0.71875 -2.62929,1.50662 -3.5287,4.68392 -3.46875,4.65625 l -2.375,15.5625 -41.6875,-6 -3.03125,7.0625 43.59375,6.46875 -16.34375,107.46875 -14.4375,-2.34375 c 0,0 -3.55913,0.0198 -4,2.84375 -0.44087,2.82396 2.5625,3.9375 2.5625,3.9375 l 14.84375,2.375 -2.34375,15.46875 c 0,0 -1.46847,1.77286 -2.5,2.15625 -1.33768,0.49718 -4.28125,0 -4.28125,0 l -40,-8.21875 -1.40625,11.0625 17.25,-0.59375 26.4375,3.9375 c 0,0 5.56236,0.31921 7.84375,-1.4375 4.17465,-3.21455 5,-7.84375 5,-7.84375 l 2.03125,-13.21875 138.125,22.21875 -8.375,50.625 -195.8125,-32.03125 0,5.0625 259.15625,43.0625 -31.84375,43.28125 -210.53125,-36.28125 c 0,0 -2.89042,-0.65353 -3.59375,2.15625 -0.70333,2.80978 1.8125,3.9375 1.8125,3.9375 l 181.46875,31.25 -7.40625,44.78125 -61.34375,-9.5 c 0,0 -2.59082,0.34053 -2.625,2.9375 -0.0342,2.59696 2.71875,3.375 2.71875,3.375 l 50.875,7.9375 -5.65625,37.0625 c 0,0 0.38525,2.3359 2.5,2.5 2.11476,0.1641 3.03125,-1.59375 3.03125,-1.59375 l 5.9375,-37.03125 22.0625,3.5625 c 0,0 3.64416,0.84225 4.71875,-2.1875 1.07459,-3.02976 -2.6875,-3.875 -2.6875,-3.875 l -12.71875,-2.09375 7.375,-44.71875 68.875,11.875 c 0,0 3.26835,1.00117 4.15625,-2.15625 0.8879,-3.15742 -2.375,-3.90625 -2.375,-3.90625 l -38.90625,-6.71875 31.8125,-43.3125 46.3125,7.6875 c 0,0 2.50714,-0.39872 3.03125,-2.4375 0.52411,-2.03877 -1,-3.125 -1,-3.125 l -44.5625,-7.28125 17.96875,-24.46875 c 0,0 7.83765,-13.00647 10.71875,-20 0.34441,-0.83601 0.70391,-1.84744 1.0625,-2.90625 l 31.4375,5.0625 c 0,0 3.11347,0.72335 3.8125,-2.21875 0.69903,-2.9421 -2.03125,-3.875 -2.03125,-3.875 l -31.3125,-5.125 c 1.16181,-4.10457 2.03125,-7.71875 2.03125,-7.71875 l 8.6875,-59.65625 13.96875,1.4375 c 0,0 2.44069,0.005 2.875,-2.3125 0.43431,-2.31722 -1.625,-3.59375 -1.625,-3.59375 l -14.25,-2.15625 7.34375,-50.375 16.75,2.71875 c 0,0 2.52647,-0.64038 3.03125,-2.875 0.50478,-2.23462 -1.96875,-3.71875 -1.96875,-3.71875 l -16.8125,-3 6.96875,-47.875 33.59375,5.6875 2.5,-6.0625 -19.75,-3.03125 83.90625,-96.4375 c 0,0 2.15584,-2.64889 4.0625,-4.125 2.34771,-1.81756 3.32657,-2.84121 5.21875,-3.09375 1.89898,-0.25345 6.4067,0.14985 10.8125,-3.25 3.99348,-3.08168 4.96875,-9.875 4.96875,-9.875 l 42.40625,-254.5625 -46.96875,0 32.84375,5.5625 -6.5625,38.90625 2.53125,9.09375 -10.15625,67.09375 c -16.25321,-2.52289 -86.15625,-14.5 -86.15625,-14.5 0,0 -2.53377,-0.86215 -3.21875,2.21875 -0.68498,3.0809 2.125,3.5 2.125,3.5 l 86.46875,14.09375 -6.25,41.28125 -115.9375,-18 25.71875,-149.15625 z m -96.6875,0.25 -7.5,0.375 c 0,0 -2.489,13.34831 -3.40625,22.5625 -0.62601,6.28854 -0.31351,17.65516 -1.59375,23.84375 -1.54122,7.45013 -6.01752,10.53985 -7.34375,18.03125 -0.75369,4.25725 -1.48332,12.50017 -1.59375,15.5625 -0.0558,1.54661 1.13148,6.36865 2.1875,7.5 1.45312,1.55678 2.92745,2.23693 4.96875,2.84375 2.03826,0.42639 14.54932,1.59328 19.6875,2.125 l 1.03125,-6.53125 -21.1875,-2.71875 c 0,0 -0.30232,-10.70983 0.8125,-15.71875 1.58023,-7.09987 6.23082,-13.28966 7.875,-20.375 2.45829,-10.59363 1.22515,-21.74601 2.84375,-32.5 0.76107,-5.05655 3.21875,-15 3.21875,-15 z m -61.0625,21.375 -4.0625,34.46875 c 0,0 0.42853,1.82259 2.78125,2.15625 2.35272,0.33366 3.28125,-1.65625 3.28125,-1.65625 l 4.5625,-34.21875 z m -288.031251,17.3125 -3.53125,7.5625 43.531251,7.40625 -16.125,93.375 -11.843751,-1.75 -1.25,6.78125 91.812501,14.84375 c 0,0 1.82889,0.5883 2.65625,1.0625 1.17866,0.67554 3.21875,2.5 3.21875,2.5 l 3.9375,-5 c 0,0 -2.92516,-3.35962 -4.8125,-4.46875 -2.64406,-1.55384 -8.75,-2.84375 -8.75,-2.84375 l -67.96875,-10.09375 12.0625,-70.84375 111.375,20.5625 -3.8125,-7.84375 -106.40625,-19.5625 2.65625,-15.59375 106.03125,18 2.78125,-5.5625 z m 166.156251,20.6875 -2.75,6.3125 95.1875,14.65625 c 0,0 4.07226,0.83813 4.8125,-3.03125 0.74024,-3.86939 -3.53125,-4.28125 -3.53125,-4.28125 z m 125.71875,42.375 c -0.85673,-0.002 -2.65091,0.26025 -3.3125,2.375 -0.88212,2.81967 1.96875,4.4375 1.96875,4.4375 l 16.25,2.84375 -2.6875,19.21875 -143.46875,-24.78125 0.5,5.3125 142.3125,24.25 -2.1875,15.65625 c 0,0 -0.0751,2.51337 2.5,2.875 2.84726,0.39985 3.28125,-1.625 3.28125,-1.625 l 5.78125,-39.875 37.78125,6.46875 0.5625,-5.90625 -58.8125,-11.21875 c 0,0 -0.18317,-0.0308 -0.46875,-0.0312 z m -143.625,57.375 90.75,14.6875 -5.6875,35.71875 -90.5625,-13.875 z m -109.46875,15.96875 c -2.70131,-0.002 -3.15625,2.5 -3.15625,2.5 l -6.03125,33.96875 -19.468751,-3.1875 c -15.11101,-3.73019 -25.41034,6.34226 -39.6875,7.8125 -2.38921,0.19826 -7.15625,-0.71875 -7.15625,-0.71875 l -63.90625,-10.34375 c 0,0 -12.30635,0.27248 -18.21875,1.78125 -13.53538,3.45405 -38.562498,16.40625 -38.562498,16.40625 l 7.499998,8.9375 c 14.01102,-7.08817 26.81635,-15.50183 38.90625,-16.78125 4.99048,-0.30845 15,0 15,0 l 60,9.65625 c 0,0 8.62727,0.25012 12.875,-0.375 9.50963,-1.39949 18.24257,-7.04286 27.84375,-7.5 2.30881,-0.10993 6.84375,1.15625 6.84375,1.15625 l 37.156251,6.3125 c 0,0 -1.44849,6.15647 -2.96875,13.5 l -33.531251,-5.78125 -0.1875,6.4375 32.437501,5.71875 c -0.82873,4.40907 -1.55098,8.77136 -1.875,12.125 -0.16617,1.71985 0.56687,18.65899 1.40625,33.03125 l -30.718751,-4.09375 -0.53125,5.71875 31.687501,5.40625 c 0.4398,6.68329 0.87929,12.01508 1.1875,13.15625 0.67298,2.49172 1.36201,5.15645 3.03125,7.125 1.73248,2.04314 4.38136,3.12237 6.78125,4.3125 2.44775,1.21386 5.19524,1.7241 7.6875,2.84375 2.88633,1.29668 6.02725,2.34736 8.375,4.46875 1.27545,1.15248 2.23923,2.68414 2.875,4.28125 0.37055,0.93087 0.53579,2.32698 0.625,3.28125 l -65.281251,-10.59375 -0.71875,6.25 70.906251,11.65625 -0.8125,42.25 -70.812501,-11.40625 -0.15625,6.96875 72.843751,12.65625 -0.5,-5.5 6.5625,-6.28125 0,-44.09375 -0.0937,-0.3125 c -0.0965,-1.26745 -0.64011,-3.04453 -1.15625,-4.15625 -0.22746,-0.48994 -0.49213,-0.95308 -0.78125,-1.40625 l 4.56245,-66.90625 12.125,1.875 -3.75,-6.96875 -28.03125,-4.46875 c 0,0 -2.12712,-0.01 -2.3125,2.875 -0.18539,2.88462 1.78125,3.5625 1.78125,3.5625 l 14.21875,2.1875 -3.28125,62.625 c -0.30999,-0.29303 -0.63369,-0.58214 -0.9375,-0.875 -2.07661,-2.00181 -4.3566,-3.81275 -6.78125,-5.375 -3.60293,-2.32145 -7.57243,-4.02258 -11.4375,-5.875 -1.70725,-0.81824 -3.75855,-1.0706 -5.1875,-2.3125 -1.43762,-1.24943 -2.42256,-3.03894 -3.03125,-4.84375 -1.54564,-4.62768 -1.97493,-32.73476 -2.5,-49.09375 5.1e-4,-0.01 -5.1e-4,-0.0215 0,-0.0312 l 9.65625,1.46875 c 0,0 2.57394,0.41044 3.1875,-2.5 0.61356,-2.91044 -1.9375,-3.40625 -1.9375,-3.40625 l -10.34375,-1.625 c 1.30555,-11.47748 4.28125,-26.78125 4.28125,-26.78125 l 35.875,6.09375 -0.71875,-10.375 -53.96875,-8.84375 5.5625,-34.375 c 0,0 0.52245,-2.80415 -2.6875,-3.1875 -0.20062,-0.024 -0.38241,-0.0312 -0.5625,-0.0312 z m 102.90625,27.6875 90.5,13.875 -5.84375,36.53125 -63.1875,-11.78125 c 0,0 -2.64487,-0.29017 -6.53125,-0.1875 l -5.125,-3.96875 -14.75,-1.84375 z m -5.875,38.875 9,1.5625 c -3.35431,1.40507 -6.92468,3.54703 -9.1875,5 l 0,-5.25 z m 23.21875,5.59375 c 0.87856,-0.0154 1.40625,0 1.40625,0 l 64.71875,13.4375 -5.4375,34.0625 -87.15625,-13.9375 3.0625,-21.65625 0,-0.9375 c 2.73138,-2.55183 7.73824,-6.99789 11.28125,-8.75 3.74057,-1.84981 9.48933,-2.1725 12.125,-2.21875 z m 416.5,13.15625 -2.53125,7.0625 21.59375,3.65625 -1.625,9.625 c 0,0 -0.73142,1.42656 -1.40625,1.75 -0.83602,0.40069 -2.78125,0 -2.78125,0 l -22.34375,-5.03125 -3.40625,5.40625 27.65625,6.6875 c 0,0 2.4715,0.0127 5.0625,-2.125 2.13645,-1.76264 3.40625,-4.1875 3.40625,-4.1875 l 1.875,-10.84375 18.4375,4.03125 c 0,0 3.26767,0.90695 4.1875,-2.65625 0.91983,-3.5632 -2.65625,-4.65625 -2.65625,-4.65625 z m -31.53125,38.46875 -4.09375,5.53125 4.625,5.6875 c 0,0 0.34746,5.97867 0,8.9375 -0.1111,0.94611 -0.65625,2.78125 -0.65625,2.78125 l -5.9375,24.90625 c 0,0 -0.37614,2.80997 2.34375,3.21875 2.7199,0.40878 3.5625,-2.15625 3.5625,-2.15625 l 6.15625,-24.6875 c 0,0 0.57577,-1.60031 0.625,-2.4375 0.0721,-1.22661 -0.46875,-3.65625 -0.46875,-3.65625 l 23.125,28.46875 3.21875,-7.15625 z m 35.3125,47.65625 -8.0625,4.53125 7.9375,9.1875 c 0,0 2.91276,2.2717 3.40625,3.9375 0.3123,1.0542 -0.4375,3.28125 -0.4375,3.28125 l -3.625,26.25 -112.84375,-16.375 c 0,0 -2.43418,1.77595 -2.28125,3.03125 0.20953,1.7199 4.03125,3.28125 4.03125,3.28125 l 109.90625,18.6875 -5.34375,38.875 -17.6875,10.875 5.3125,6.5625 15.40625,-10.625 c 0,0 2.17507,-2.3388 2.78125,-3.78125 0.40643,-0.96713 0.5,-3.09375 0.5,-3.09375 l 6.5,-39.78125 37.6875,7.28125 0.5,-7.59375 -37.34375,-4.84375 4.46875,-27.46875 c 0,0 0.78991,-2.36546 0.5625,-3.53125 -0.39551,-2.02755 -3.21875,-5.28125 -3.21875,-5.28125 z m -407.5,38.09375 c 0.49403,-0.0264 0.90625,0 0.90625,0 l 78.78125,12.5 -6.78125,38.78125 c 0,0 -0.15228,1.0399 -1,1.6875 -0.84771,0.64761 -2.28125,0.34375 -2.28125,0.34375 l -77.75,-13.46875 5.8125,-37.8125 c 0,0 0.42235,-1.36918 0.9375,-1.71875 0.30515,-0.20707 0.88097,-0.28614 1.375,-0.3125 z m 86.40625,13.5625 140.34375,22.28125 -16.78125,120.6875 c 0,0 0.6705,0.46844 -3.0625,11.78125 l -177.5625,-28.96875 14.375,-84 27.15625,4.78125 c 0,0 3.01732,0.36148 5.1875,-1.09375 2.17018,-1.45524 2.90625,-3.9375 2.90625,-3.9375 z m -254.437501,21.0625 0.25,7.3125 72.750001,12.375 -3.03125,-8.0625 z m 450.375001,0.125 c -2.18463,-0.0166 -3,2.15625 -3,2.15625 l -1.375,8.65625 -11.125,-1.875 c 0,0 -2.21334,-0.0707 -2.71875,2.5 -0.50542,2.57068 1.65625,3.21875 1.65625,3.21875 l 11.25,2.0625 -8.03125,50.9375 -10.375,-1.5625 1.0625,6.0625 62.875,10.375 0.71875,-6.78125 -48.90625,-7.3125 9.125,-50.53125 46.5625,8.53125 0.71875,-6.78125 -46.21875,-7.75 1.5625,-8.65625 c 0,0 0.20395,-2.25961 -2.75,-3.09375 -0.36924,-0.10427 -0.71916,-0.15388 -1.03125,-0.15625 z m -291.4375,11.3125 45.5,8 -14.0625,84.125 -44.46875,-7.25 z m 410.8125,60.5 c -0.20552,-0.0593 -0.38312,0.35894 -0.53125,1.5625 l -9.6875,8.25 c 0,0 -4.20565,1.94875 -6.46875,2.34375 -2.65466,0.46334 -8.09375,0 -8.09375,0 l -25,-4.78125 c 0,0 -3.19283,-0.13255 -3.28125,2.78125 -0.0884,2.9138 2.78125,3.03125 2.78125,3.03125 l 31.0625,5.03125 c 0,0 2.91792,0.34864 4.3125,0 1.19126,-0.29781 3.21152,-1.72322 3.25,-1.75 l 3.3125,3.78125 -1.28125,12.875 c 0,0 -0.78443,3.48428 2.53125,4.03125 3.31568,0.54697 3.78125,-2.78125 3.78125,-2.78125 l 1.53125,-14.875 -5.5,-6.3125 9.78125,-7.34375 c -1.0218,-1.11781 -1.88345,-5.66596 -2.5,-5.84375 z m -575.812501,13.1875 -0.75,7.8125 22.843751,5.5 -15.250001,88.25 c -0.43314,-0.10483 -0.89977,-0.21129 -1.28125,-0.3125 l -4.78125,1 2.75,7.59375 6.84375,-0.75 11.093751,3.03125 c 0,0 3.84476,1.3158 5.3125,-2.53125 1.46773,-3.84706 -3.28125,-4.8125 -3.28125,-4.8125 0,0 -4.166311,-0.69229 -8.750001,-1.5625 l 14.218751,-88.25 63.71875,15.3125 -0.5,-4.53125 z m 493.781251,35.03125 0,6.40625 73.9375,10.71875 2.15625,-5.71875 z m -197.3125,6.375 82.40625,13.25 c -3.22223,8.50673 -12.9375,22.5 -12.9375,22.5 l -18.125,24.65625 -61.1875,-10 z m 272.6875,74.6875 -62.875,1.78125 -0.34375,8.5625 60.71875,-2.125 z m 3.5625,23.21875 -2.84375,4.625 c 0,0 2.86345,4.41153 3.90625,6.8125 2.57925,5.93855 4.49885,12.20398 5.71875,18.5625 0.56314,2.93525 0.71875,8.9375 0.71875,8.9375 l -14.65625,38.5625 c 0,0 -0.79119,2.25099 1.375,3.65625 2.16619,1.40526 4,-0.4375 4,-0.4375 l 15.34375,-38.9375 c 0,0 1.07051,-5.71998 0.71875,-8.5625 -1.12913,-9.12438 -4.637,-17.96757 -8.9375,-26.09375 -1.38864,-2.62396 -5.34375,-7.125 -5.34375,-7.125 z m -31.4375,1.0625 -30.34375,0.375 1.4375,8.90625 27.125,-1.78125 15,6.78125 5.71875,-6.0625 z m -529.156251,12.90625 0,7.0625 172.750001,27.6875 c 0,0 3.11053,1.23845 4.375,3.46875 1.43579,2.5325 1.5,5.84375 1.5,5.84375 l -4.65625,39.0625 -139.8125,-22.8125 c 0,0 -5.15088,-0.88735 -7.59375,-0.34375 -2.4924,0.55462 -6.6875,3.5625 -6.6875,3.5625 0,0 -2.19249,2.23635 -0.25,4.4375 1.94248,2.20115 4.90625,0.5625 4.90625,0.5625 0,0 2.81716,-2.70923 4.625,-3.21875 1.37164,-0.38658 4.28125,0.25 4.28125,0.25 l 56.5625,9.5 -9.1875,57.84375 -38.4375,-6.875 -4.28125,7.125 142.5,24.65625 c 0,0 12.53974,2.59837 18.90625,3.21875 4.74553,0.46243 9.54451,0.38877 14.3125,0.375 3.81444,-0.011 7.8592,0.9463 11.4375,-0.375 2.14111,-0.79062 3.6436,-2.75845 5.34375,-4.28125 2.88597,-2.58492 5.43839,-5.52055 8.21875,-8.21875 2.11529,-2.05278 4.0459,-4.33954 6.4375,-6.0625 3.0705,-2.21206 10,-5.375 10,-5.375 0,0 3.32832,-1.59074 1.78125,-4.625 -1.54707,-3.03426 -5.71875,-1.4375 -5.71875,-1.4375 0,0 -10.93477,5.44592 -14.28125,8.5625 -5.10125,4.35543 -7.88239,11.26395 -13.59375,13.90625 -3.4157,1.51515 -4.11332,1.25291 -7.84375,1.46875 -5.11164,0.29576 -15.34375,-0.71875 -15.34375,-0.71875 l -39.71875,-7.09375 9.59375,-58.625 53.15625,8.9375 c 0,0 3.03433,0.36996 3.75,-2.15625 0.71567,-2.52621 -2.5,-3.9375 -2.5,-3.9375 l -44.53125,-7.28125 4.375,-35.6875 c 0,0 0.56826,-5.88364 -0.8125,-9.6875 -0.76668,-2.11211 -2.1851,-5.61678 -4.5625,-8.09375 -0.8391,-0.87424 -3.59375,-1.96875 -3.59375,-1.96875 z m 510.250001,19.25 -8.59375,1.0625 1.09375,4.65625 6.0625,-0.375 -2.15625,7.15625 -0.34375,15.34375 8.9375,8.21875 5,-6.4375 -7.875,-3.90625 c 0,0 -1.40719,-5.72801 -1.0625,-8.59375 0.31928,-2.65454 2.84375,-7.5 2.84375,-7.5 l 12.875,2.5 5,-6.78125 c 0,0 -10.53132,0.97293 -15.375,-0.71875 -2.48648,-0.86842 -6.40625,-4.625 -6.40625,-4.625 z m -413.46875,56.96875 66.8125,11.21875 -9.15625,58.625 -66.9375,-11.96875 z"
       sodipodi:nodetypes="cccccccccccccccccccccsccccccccccsccccccsccccsccccccccccccccccccccccccscccccccscccscccccscccccccccsccccscccscccsccccsccccscccsccsccccccccccscccccccsssccccccccsccccccccssscsccccssscccsccccccccccsccscccccccccccccscccscccccccsccccccccccccccccccscccccssccccccsccccssssssccccccccccccscccccccccssssccccscccccccccccccccccccccccccccccscccccsccccsccczcccccsccsccccccccccscccsccccccsccccccsccccccccccsccccccccscccccccscccscccccccccccccssccccccccsccsccscccsccccccccccccccsccccccccccccccccccccccccssccsccsscccccccccccscccscscsccccccsssssscscccsccccscccsscccccccccccscccscccccc" />
    <path
       class="connecting"
       d="m 450.01152,106.06985 c -17.60441,105.07711 -35.00545,218.61284 -48.4375,313.15625 -1.39511,9.82459 -3.47784,19.58293 -4.8125,29.28125 -1.28041,2.84053 -3.74957,4.54022 -6.59375,5.8125 -2.26129,1.01153 -4.87179,0.3488 -7.34375,0.1875 -13.80817,-0.90098 -33.97939,-5.29216 -43.9375,-6.5 -2.54159,-0.30827 -5.03546,-0.83916 -7.5625,-1.25 -22.29328,-3.62435 -44.54789,-7.6532 -66.9375,-10.625 -2.3499,-0.31191 -4.71079,-0.45205 -7.0625,-0.75 -3.46045,-0.43842 -7.09858,-0.22101 -10.34375,-1.5 -1.23829,-0.48804 -2.05722,-1.75846 -3.28125,-2.28125 -6.95349,-2.96988 -16.34633,0.20046 -22.21875,-4.5625 -5.41695,-4.39354 -10.9375,-27.40625 -10.9375,-27.40625 l -3.4375,58.40625 c 0,0 4.87988,-11.5548 7.28125,-12.8125 8.87675,-4.64913 20.05668,-1.29276 30.0625,-0.75 21.45729,1.16393 42.70162,5.11043 63.90625,8.59375 3.04639,0.50044 6.02117,1.21967 9.0625,1.75 21.733,3.78969 59.99122,9.79577 65.59375,11.1875 8.5532,2.12471 16.82326,3.70525 25.09375,6.75 2.40647,0.88593 4.69779,2.03923 7.0625,3.03125 35.15888,14.74941 69.43456,32.02095 105.8125,43.4375 20.28007,6.36452 41.28361,10.20562 62.21875,13.90625 l -15.75,101.9375 -3.21875,31.78125 7.15625,36.4375 9.28125,40.375 6.78125,57.5 -1.0625,38.5625 -1.78125,11.4375 4.28125,13.5625 9.65625,-25 -2.15625,-11.4375 1.0625,-26.0625 -3.90625,-41.0625 -9.65625,-47.5 -8.9375,-44.3125 0.375,-10.34375 18.59375,-124.40625 c 0.0933,0.0167 0.18806,0.0137 0.28125,0.0312 6.90158,1.30192 20.46875,5.0625 20.46875,5.0625 l -3.53125,-11.875 c 0,0 -10.11804,-1.78925 -15.15625,-2.78125 -0.19796,-0.039 -0.39592,-0.0854 -0.59375,-0.125 l 14.21875,-95.1875 c 0,0 1.53638,-5.40924 2.84375,-7.875 1.23662,-2.33232 2.84758,-4.48331 4.65625,-6.40625 6.02275,-6.40327 14.21252,-10.48178 20.34375,-16.78125 4.32222,-4.44082 7.88508,-9.57858 11.4375,-14.65625 5.79415,-8.2819 11.53929,-16.6798 16.0625,-25.71875 2.79961,-5.59459 5.93652,-11.30131 6.78125,-17.5 0.96961,-7.11509 -1.01578,-14.34283 -2.125,-21.4375 -3.15971,-20.20977 -5.74427,-47.84164 -12.875,-60 -0.61705,-1.75826 -1.19388,-3.67099 -2.5,-5 -4.32392,-4.39963 -16.40625,-8.56245 -16.40625,-8.56245 l 18.21875,-113.58036 -12.75633,-2.38458 -3.88263,21.11606 2.70146,6.63013 -15.375,96.09375 c 0,0 15.62777,3.21379 20.375,8.90625 3.42511,9.24297 8.77003,35.71311 12.125,51.4375 1.93682,9.07764 1.3509,18.7178 -0.34375,27.84375 -1.25342,6.74986 -3.98849,13.22178 -7.15625,19.3125 -4.73703,9.108 -10.65366,17.69374 -17.5,25.34375 -3.14657,3.51594 -7.10807,6.2071 -10.6875,9.28125 -4.74852,4.07821 -10.22221,7.41813 -14.3125,12.15625 -3.66609,4.24674 -8.90625,14.28125 -8.90625,14.28125 l -15.53125,100.46875 c -20.88254,-4.31519 -42.25992,-6.81202 -62.5625,-13.3125 -25.52804,-8.17356 -49.39128,-20.80808 -73.71875,-32.0625 -9.36203,-4.33108 -18.43656,-9.28789 -27.78125,-13.65625 -4.50635,-2.10658 -9.69562,-2.61023 -12.40625,-6.78125 -1.83482,-2.82335 -1.85885,-6.06333 -1.25,-9.375 1.68129,-9.23451 4.84375,-27.46875 4.84375,-27.46875 l 48.96875,-313.46875 z"
       sodipodi:nodetypes="cccsssssssssccsssssssscccccccccccccccccscccccssssssscccccccccssssssccsssscccc" />
    <path
       class="major"
       d="m 240.79277,106.7261 c 0,0 -0.11617,2.35668 -0.75,6.90625 -0.19431,1.39474 -0.41658,3.04369 -0.71875,5 -0.56516,3.65889 -1.95737,10.39808 -2.59375,14.9375 -0.27947,1.99357 -0.82578,4.05424 -1.09375,6.15625 -1.33883,10.50216 -3.49173,20.88763 -4.09375,32.71875 -0.10915,2.14502 0.0903,4.73444 -0.25,6.84375 -0.93786,5.81434 -0.67828,10.31198 -1.78125,15.84375 -0.40918,2.05215 -0.31486,4.08365 -0.75,6.0625 -1.74397,7.931 -1.44249,14.73924 -4.375,20.5625 -11.38309,22.60411 -22.472,32.204 -33.09375,48.71875 -1.2261,1.90635 -2.54465,3.77189 -3.53125,5.8125 -7.92961,16.40106 -15.51748,33.38776 -18.9375,51.28125 -0.66393,3.47366 -0.91531,7.12036 -0.25,10.59375 2.38463,12.44951 5.44814,21.34736 8.6875,29 0.92153,2.17701 1.87476,4.2522 2.8125,6.28125 3.70041,8.00678 7.41916,15.26188 10.46875,25.0625 3.42985,11.0227 -0.36376,48.39846 -5.8125,63.15625 -1.33856,3.62546 -12.44864,15.84956 -18.4375,23.21875 -1.81597,2.23452 -3.59765,4.47663 -5.28125,6.8125 -0.35493,0.49245 -0.70664,1.01831 -1.03125,1.53125 -1.04992,1.65908 -2.21084,3.24749 -3.03125,5.03125 -1.3348,2.90214 -2.50504,5.94301 -3.03125,9.09375 -0.9181,5.49723 -0.27863,19.39006 -0.75,29.0625 -0.11502,2.36022 -0.4649,4.69973 -0.5,7.0625 -0.20994,14.15285 -0.32672,28.44094 1.78125,42.4375 0.2463,1.63542 0.88025,3.16925 1.25,4.78125 0.97808,4.26416 1.8145,8.55922 2.53125,12.875 0.30622,1.84383 0.51453,3.70831 0.75,5.5625 0.72612,5.71775 1.69395,11.4337 2.03125,17.1875 0.0788,1.34456 0.0498,2.6853 0,4.03125 -0.0842,2.27751 -0.23897,4.54843 -0.5,6.8125 -5.16267,44.77906 -12.40203,89.33962 -20.96875,133.59375 -0.42689,2.20525 -1.04626,4.3693 -1.53125,6.5625 -0.87358,3.95044 -8.90928,40.45351 -15.78125,79.25 -8.32696,47.01079 -15.65625,97.40621 -15.65625,97.40621 l 19.4375,0.375 c 0,0 17.72236,-111.30709 23.90625,-153.24996 0.6633,-4.49891 -0.44373,-9.08934 0.25,-13.71875 0.8668,-5.78433 1.01217,-7.91352 1.9375,-13.90625 7.91158,-51.23789 18.08407,-108.65102 20.15625,-126.46875 0.4189,-3.60186 0.80069,-7.03802 1.75,-9.96875 1.84612,-5.69936 4.78307,-7.73718 5.53125,-12.21875 6.59166,-39.48391 16.38691,-108.68659 22.94643,-145.53571 1.88038,-10.5633 4.58577,-13.9873 7.29018,-31.05804 1.71782,-10.84324 2.22249,-25.22085 2.20089,-35.0625 -0.004,-2.0318 -0.0836,-3.98097 -0.21875,-5.8125 -2.12727,-28.83383 -28.52023,-50.36725 -25.75,-71.96875 1.99617,-15.56562 7.37097,-34.43578 15.15625,-48.21875 10.60056,-18.7671 29.31165,-34.42291 38.125,-56.34375 1.73062,-4.30445 2.99387,-8.61084 3.96875,-12.9375 0.39313,-1.74475 0.75896,-3.50263 1.0625,-5.25 2.30872,-13.29045 2.29648,-26.63595 4.1875,-39.9375 0.10375,-0.72974 0.19664,-1.45812 0.3125,-2.1875 0.18342,-1.15471 0.39181,-2.38618 0.59375,-3.65625 3.51006,-22.07556 9.5625,-60 9.5625,-60 z m 484.375,311 c 0,0 -32.74191,7.65822 -51,14.625 -11.43222,4.36222 -43.20821,28.94296 -49.5,37.375 -10.21698,13.69244 -15.77085,38.10236 -15.65625,57.09375 0.0261,4.32841 1.42956,8.60375 3.03125,12.625 11.35903,28.51826 46.10967,52.20607 48.46875,82.8125 1.2206,15.83596 -14.52622,26.69804 -16.65625,42.4375 -2.26909,16.767 2.75587,32.59568 2.03125,49.5 -0.4695,10.95267 -8.37991,40.68252 -14.15625,50 -24.06627,38.81993 -45.25692,94.02013 -57.5625,144.4375 -2.48661,10.18794 -5.6875,45.62501 -5.6875,45.62501 l 16.90625,-0.375 c 0,0 1.6193,-34.82744 3.90625,-45.25001 3.95043,-18.0037 9.32128,-35.73355 15.6875,-53.03125 14.3176,-38.90247 39.62991,-73.62204 50.5,-113.625 2.75454,-10.13698 3.27276,-20.81112 3.53125,-31.3125 0.32794,-13.32292 -4.30282,-33.23108 -1,-39.90625 12.69816,-25.6636 25.75,-49.5 25.75,-49.5 0,0 -8.08155,-24.80913 -16.15625,-30.3125 -1.99467,-1.7628 -5.52102,-2.88353 -7.09375,-5.03125 -6.54335,-8.93557 -35.62757,-42.27339 -36.34375,-58.09375 -1.12692,-24.8934 5.16939,-37.35336 10.59375,-45.46875 3.66014,-5.47594 29.6473,-29.46821 43.9375,-36.875 16.45163,-8.52708 46.46875,-14.625 46.46875,-14.625 z m -537.40625,63.875 -17.90625,117.4375 c 0,0 -3.3413,-19.44207 -3.8125,-29.3125 -1.09769,-22.99422 -0.58233,-60.19949 3.8125,-68.6875 2.62144,-5.06296 17.90625,-19.4375 17.90625,-19.4375 z"
       sodipodi:nodetypes="cssssscssssssssssssssssscssssccssssccssssssssccsssssssscccsssssssssccsssssccssssccccssc" />
    <path
       class="arrows"
       d="m 142.44902,180.19485 -4.5625,1.65625 4.4375,3.40625 0.0312,-1 7.78125,0.625 0,-2.03125 -7.75,-0.75 0.0625,-1.90625 z m 54.875,10.21875 -4.5625,1.65625 4.4375,3.40625 0.0312,-1 7.78125,0.625 0,-2.03125 -7.75,-0.75 0.0625,-1.90625 z" />
    <path
       style="stroke:#000000;stroke-width:5px;fill:none"
       d="m 99.964979,152.94354 568.557371,0 0,774.2716 -568.557371,0 z" />
  </g>
</svg>
